<?xml version="1.0" standalone="no"?>
<!DOCTYPE svg PUBLIC "-//W3C//DTD SVG 20010904//EN"
 "http://www.w3.org/TR/2001/REC-SVG-20010904/DTD/svg10.dtd">
<svg version="1.0" xmlns="http://www.w3.org/2000/svg"
 width="900.000000pt" height="900.000000pt" viewBox="0 0 900.000000 900.000000"
 preserveAspectRatio="xMidYMid meet">
<metadata>
Created by potrace 1.14, written by Peter Selinger 2001-2017
</metadata>
<g transform="translate(0.000000,900.000000) scale(0.100000,-0.100000)"
fill="#000000" stroke="none">
<path d="M1617 5933 c-4 -3 -7 -26 -7 -50 l0 -43 130 0 130 0 -2 -1447 -3
-1448 -125 0 -125 0 0 -48 0 -48 1209 1 c665 0 1210 1 1212 2 1 2 5 111 8 243
4 132 10 305 15 385 5 80 8 186 7 235 l-1 90 -41 3 -41 3 -32 -91 c-28 -78
-50 -124 -105 -225 -22 -39 -51 -81 -102 -145 -145 -182 -339 -311 -549 -366
-95 -24 -325 -47 -410 -40 l-50 4 -3 707 -2 708 117 -5 c288 -13 428 -141 538
-491 l37 -118 37 3 36 3 3 648 2 648 -37 -3 c-36 -3 -37 -4 -54 -68 -36 -142
-101 -264 -186 -356 -62 -65 -95 -87 -176 -118 -62 -23 -154 -31 -300 -27 -16
1 -17 38 -17 683 l1 681 162 -6 c239 -9 350 -33 491 -104 99 -50 222 -172 293
-291 68 -115 122 -220 171 -334 20 -46 23 -48 62 -48 l41 0 -7 128 c-3 70 -14
267 -23 437 l-16 310 -1141 3 c-627 1 -1143 -1 -1147 -5z"/>
<path d="M4372 5932 c-8 -6 -12 -23 -10 -43 l3 -34 143 -5 142 -5 0 -1448 c0
-797 -2 -1453 -6 -1458 -3 -6 -59 -10 -132 -9 -70 1 -133 1 -140 1 -9 -1 -12
-13 -10 -41 l3 -41 741 1 c870 0 934 4 1254 85 214 54 468 166 548 242 7 7 18
13 23 13 5 0 54 44 107 98 142 141 229 286 291 488 60 193 82 342 88 599 11
452 -65 770 -244 1024 -137 194 -386 359 -658 436 -124 36 -290 68 -440 86
-111 14 -1684 23 -1703 11z m1445 -93 c115 -13 242 -48 311 -86 208 -117 321
-369 367 -828 21 -207 15 -959 -9 -1115 -52 -342 -134 -557 -260 -682 -130
-129 -291 -186 -558 -195 l-148 -6 0 1462 0 1461 100 0 c56 0 144 -5 197 -11z"/>
</g>
</svg>
